<svg id="Grupo_484" data-name="Grupo 484" xmlns="http://www.w3.org/2000/svg" xmlns:xlink="http://www.w3.org/1999/xlink" width="217.043" height="61.838" viewBox="0 0 217.043 61.838">
  <defs>
    <clipPath id="clip-path">
      <rect id="Retângulo_61" data-name="Retângulo 61" width="217.043" height="61.839" fill="none"/>
    </clipPath>
  </defs>
  <g id="Grupo_473" data-name="Grupo 473" clip-path="url(#clip-path)">
    <path id="Caminho_812" data-name="Caminho 812" d="M113.6,37.309h.775V35.874h0v-2.33h3.786v2.33h0v1.435h4.839V30.891a6.317,6.317,0,0,0-.2-1.475,16.275,16.275,0,0,0-.631-1.947L120.4,22.9h0l-.065-.167-.047-.124a.083.083,0,0,1-.005-.01l-.274-.7h-7.356l-.268.682c0,.009-.009.014-.013.024l-1.861,4.857a16.175,16.175,0,0,0-.631,1.947,6.321,6.321,0,0,0-.2,1.475v6.418H113.6Zm1.989-10.91a.811.811,0,0,1,.182-.278.327.327,0,0,1,.225-.086h.535a.328.328,0,0,1,.225.086.8.8,0,0,1,.181.278l1.006,3.252h-3.359Z" transform="translate(-46.365 -9.26)" fill="#fff"/>
    <path id="Caminho_813" data-name="Caminho 813" d="M179.449,21.906h-9.926a1.087,1.087,0,0,0-.113.014h-.658V37.309h11.466V33.273h-.714c-.021,0-.034-.007-.056-.007h-5.9V31.425h4.942V27.59h-4.942V25.949h6.674V21.92h-.658a1.107,1.107,0,0,0-.113-.014" transform="translate(-71.338 -9.26)" fill="#fff"/>
    <path id="Caminho_814" data-name="Caminho 814" d="M203.9,28.9a1.663,1.663,0,0,0,.931-.909,3.907,3.907,0,0,0,.267-1.529v-.984a3.674,3.674,0,0,0-.909-2.578,4.375,4.375,0,0,0-3.3-1H193.76c-.043,0-.073.012-.113.014h-.658V37.3h.742c.01,0,.017,0,.028,0h3.294c.01,0,.017,0,.028,0h.742V32.345h2.995a.77.77,0,0,1,.631.225,1.1,1.1,0,0,1,.182.7v.011h0V37.3h.742c.011,0,.017,0,.028,0h3.316c.011,0,.018,0,.028,0h.72v-.6a1.209,1.209,0,0,0,.022-.168V32a3.149,3.149,0,0,0-.717-2.161A2.818,2.818,0,0,0,203.9,28.9m-3.53-1.411a1.266,1.266,0,0,1-.192.716.841.841,0,0,1-.749.289h-1.6V25.756h1.6a.841.841,0,0,1,.749.289,1.267,1.267,0,0,1,.192.716Z" transform="translate(-81.583 -9.26)" fill="#fff"/>
    <path id="Caminho_815" data-name="Caminho 815" d="M298.019,29.479l3.658,4.428v3.4h4.749v-15.4h-4.749v5.326l-3.77-4.313-.871-1.014H293.27v15.4h4.754V35.984h-.005Z" transform="translate(-123.975 -9.26)" fill="#fff"/>
    <path id="Caminho_816" data-name="Caminho 816" d="M220.7,37.308h9.113c.011,0,.018,0,.028,0h.742V33.222h-2.845V26.04h2.845V21.905H219.931V26.04h2.888v7.182h-2.888V37.3h.742c.011,0,.017,0,.028,0" transform="translate(-92.972 -9.26)" fill="#fff"/>
    <path id="Caminho_817" data-name="Caminho 817" d="M253.79,37.308V33.222h-5.07a1.609,1.609,0,0,1-.984-.246.92.92,0,0,1-.32-.78V27.1a.984.984,0,0,1,.32-.8,1.428,1.428,0,0,1,.869-.262h5.185V21.905H247.8a6.1,6.1,0,0,0-3.969,1.081,4.062,4.062,0,0,0-1.294,3.305v6.653a4.027,4.027,0,0,0,1.294,3.294,6.146,6.146,0,0,0,3.969,1.07h5.99Z" transform="translate(-102.528 -9.26)" fill="#fff"/>
    <path id="Caminho_818" data-name="Caminho 818" d="M151.459,21.906h-3.828l-.35.641h0l-.242.443-.028.051-1.635,2.993a1.785,1.785,0,0,1-.181.279.259.259,0,0,1-.2.085H144.8a.257.257,0,0,1-.2-.085,1.664,1.664,0,0,1-.182-.279l-1.925-3.487a1.41,1.41,0,0,0-.417-.492,1,1,0,0,0-.567-.15h-4.215v15.4h4.724v-.745c0-.009,0-.016,0-.025v-7.53l1.262,2.332a1.145,1.145,0,0,0,1.134.685h.855a1.145,1.145,0,0,0,1.134-.685l1.262-2.332v7.53a1.166,1.166,0,0,0,.015.117v.653H152.5v-15.4h-1.04Z" transform="translate(-58.037 -9.26)" fill="#fff"/>
    <path id="Caminho_819" data-name="Caminho 819" d="M269.577,37.309h.776v-1.29h-.006V33.544h3.786v3.765h4.835V30.891a6.316,6.316,0,0,0-.2-1.475,16.272,16.272,0,0,0-.631-1.947l-1.861-4.857a1,1,0,0,0-.4-.534,1.226,1.226,0,0,0-.674-.171h-5.755a1.268,1.268,0,0,0-.7.171,1,1,0,0,0-.4.534L266.5,27.469a16.173,16.173,0,0,0-.631,1.947,6.321,6.321,0,0,0-.2,1.475v6.418h3.916Zm1.989-10.91a.811.811,0,0,1,.182-.278.327.327,0,0,1,.225-.086h.535a.328.328,0,0,1,.225.086.8.8,0,0,1,.181.278l1.006,3.252H270.56Z" transform="translate(-112.304 -9.26)" fill="#fff"/>
    <path id="Caminho_820" data-name="Caminho 820" d="M121.629,60.48a6.149,6.149,0,0,0-3.968-1.07h-7.98v15.4h7.98a6.149,6.149,0,0,0,3.968-1.069,4.029,4.029,0,0,0,1.294-3.294V63.774a4.029,4.029,0,0,0-1.294-3.294m-3.54,9.241a1.107,1.107,0,0,1-.246.791,1.006,1.006,0,0,1-.76.257h-2.546V63.5h2.546a1.032,1.032,0,0,1,.76.246,1.068,1.068,0,0,1,.246.78Z" transform="translate(-46.366 -25.115)" fill="#fff"/>
    <path id="Caminho_821" data-name="Caminho 821" d="M148.236,66.4a1.663,1.663,0,0,0,.931-.909,3.907,3.907,0,0,0,.267-1.529v-.984a3.671,3.671,0,0,0-.909-2.578,4.375,4.375,0,0,0-3.3-1h-7.894v15.4h4.065a.66.66,0,0,0,.77-.77V69.849h2.995a.772.772,0,0,1,.632.225,1.1,1.1,0,0,1,.182.7v3.273a.66.66,0,0,0,.77.77h3.316a.66.66,0,0,0,.77-.77V69.507a3.149,3.149,0,0,0-.717-2.161,2.819,2.819,0,0,0-1.872-.942m-3.53-1.411a1.266,1.266,0,0,1-.192.716.841.841,0,0,1-.749.289h-1.6V63.26h1.6a.841.841,0,0,1,.749.289,1.267,1.267,0,0,1,.192.716Z" transform="translate(-58.052 -25.114)" fill="#fff"/>
    <path id="Caminho_822" data-name="Caminho 822" d="M201.013,64.973l-1.861-4.857a1.006,1.006,0,0,0-.4-.534,1.231,1.231,0,0,0-.674-.171h-5.755a1.271,1.271,0,0,0-.7.171,1,1,0,0,0-.4.534l-1.862,4.857a16.3,16.3,0,0,0-.631,1.946,6.33,6.33,0,0,0-.2,1.475v6.419h4.677v-.705c0-.024.008-.04.008-.065v-3h3.787v3.766h4.835V68.394a6.33,6.33,0,0,0-.2-1.475,16.3,16.3,0,0,0-.631-1.946m-7.573,2.181,1.006-3.252a.8.8,0,0,1,.182-.278.324.324,0,0,1,.225-.086h.535a.324.324,0,0,1,.225.086.8.8,0,0,1,.182.278l1.006,3.252Z" transform="translate(-79.703 -25.115)" fill="#fff"/>
    <path id="Caminho_823" data-name="Caminho 823" d="M230.59,59.409h-3.465a1,1,0,0,0-.567.15,1.4,1.4,0,0,0-.417.492l-1.9,3.487a1.739,1.739,0,0,1-.182.279.258.258,0,0,1-.2.085h-.193a.257.257,0,0,1-.2-.085,1.665,1.665,0,0,1-.182-.279l-1.925-3.487a1.41,1.41,0,0,0-.417-.492,1,1,0,0,0-.567-.15H216.92a.66.66,0,0,0-.77.77V74.812h4.73V73.676h0V66.512l1.262,2.332a1.145,1.145,0,0,0,1.134.685h.855a1.144,1.144,0,0,0,1.134-.685l1.262-2.332v8.3h4.835V60.179a.66.66,0,0,0-.77-.77" transform="translate(-91.374 -25.114)" fill="#fff"/>
    <path id="Caminho_824" data-name="Caminho 824" d="M316.9,64.973l-1.861-4.857a1.006,1.006,0,0,0-.4-.534,1.231,1.231,0,0,0-.674-.171H308.21a1.271,1.271,0,0,0-.7.171,1,1,0,0,0-.4.534l-1.862,4.857a16.306,16.306,0,0,0-.631,1.946,6.33,6.33,0,0,0-.2,1.475v6.419h4.687V73.747h0v-2.7h3.787v3.766h4.835V68.394a6.328,6.328,0,0,0-.2-1.475,16.3,16.3,0,0,0-.631-1.946m-7.573,2.181,1.006-3.252a.8.8,0,0,1,.182-.278.324.324,0,0,1,.225-.086h.535a.324.324,0,0,1,.225.086.8.8,0,0,1,.182.278l1.006,3.252Z" transform="translate(-128.69 -25.115)" fill="#fff"/>
    <path id="Caminho_825" data-name="Caminho 825" d="M339.986,65.25l-3.187-.428a.572.572,0,0,1-.428-.214.744.744,0,0,1-.149-.471.7.7,0,0,1,.149-.46.523.523,0,0,1,.428-.182h5.761V59.41h-6.767a4.954,4.954,0,0,0-3.251.973,3.418,3.418,0,0,0-1.177,2.792v2.247a3.2,3.2,0,0,0,.909,2.567,4.655,4.655,0,0,0,2.407.984l3.208.45a.562.562,0,0,1,.417.193.841.841,0,0,1,.139.534.7.7,0,0,1-.139.439.493.493,0,0,1-.417.182h-6.525v4.043h7.53a4.962,4.962,0,0,0,3.241-.973,3.4,3.4,0,0,0,1.187-2.792V68.8a3.177,3.177,0,0,0-.92-2.567,4.721,4.721,0,0,0-2.418-.984" transform="translate(-140.079 -25.115)" fill="#fff"/>
    <path id="Caminho_826" data-name="Caminho 826" d="M366.307,66.234a4.721,4.721,0,0,0-2.418-.984l-3.187-.428a.572.572,0,0,1-.428-.214.745.745,0,0,1-.149-.471.7.7,0,0,1,.149-.46.523.523,0,0,1,.428-.182h5.761V59.41H359.7a4.954,4.954,0,0,0-3.251.973,3.418,3.418,0,0,0-1.177,2.792v2.247a3.2,3.2,0,0,0,.909,2.567,4.655,4.655,0,0,0,2.407.984l3.208.449a.566.566,0,0,1,.417.193.844.844,0,0,1,.139.535.7.7,0,0,1-.139.439.493.493,0,0,1-.417.182h-6.525v4.043h7.53a4.962,4.962,0,0,0,3.241-.973,3.4,3.4,0,0,0,1.187-2.792V68.8a3.177,3.177,0,0,0-.92-2.567" transform="translate(-150.184 -25.115)" fill="#fff"/>
    <path id="Caminho_827" data-name="Caminho 827" d="M174.249,59.409h-9.388v15.4h11.467V70.769h-6.675v-1.84h4.172l.013,0h.8V65.1h-4.987V63.452h6.675V59.409h-2.079Z" transform="translate(-69.692 -25.114)" fill="#fff"/>
    <path id="Caminho_828" data-name="Caminho 828" d="M265.666,59.409h-4.859a6.1,6.1,0,0,0-3.969,1.081,4.06,4.06,0,0,0-1.294,3.305v6.653a4.028,4.028,0,0,0,1.294,3.294,6.149,6.149,0,0,0,3.969,1.07h5.99V70.725h-5.07a1.61,1.61,0,0,1-.984-.246.921.921,0,0,1-.32-.781V64.607a.986.986,0,0,1,.32-.8,1.516,1.516,0,0,1,.984-.268h5.07V59.408h-1.13Z" transform="translate(-108.027 -25.114)" fill="#fff"/>
    <path id="Caminho_829" data-name="Caminho 829" d="M287.011,67.3v3.466H284.08V60.179a.66.66,0,0,0-.77-.77h-3.316a.66.66,0,0,0-.77.77V74.812h12.429v-8.3h-4.642Z" transform="translate(-118.037 -25.114)" fill="#fff"/>
    <path id="Caminho_830" data-name="Caminho 830" d="M0,0V43.591a9.353,9.353,0,0,0,4.727,8.088l15.634,8.91a9.581,9.581,0,0,0,9.465,0l15.634-8.91a9.342,9.342,0,0,0,4.727-8.088V0Z" fill="red"/>
    <path id="Caminho_831" data-name="Caminho 831" d="M49.3,5.711v38.94a8.385,8.385,0,0,1-4.1,7.224L31.628,59.839a8.127,8.127,0,0,1-8.222,0L9.83,51.876a8.386,8.386,0,0,1-4.1-7.224V5.711Z" transform="translate(-2.421 -2.414)" fill="#0111a2"/>
    <path id="Caminho_832" data-name="Caminho 832" d="M42.089,80.106l.445,1.37h1.44l-1.166.846.445,1.369-1.165-.846-1.165.846.445-1.369L40.2,81.476h1.44Z" transform="translate(-16.996 -33.863)" fill="red"/>
    <path id="Caminho_833" data-name="Caminho 833" d="M5.727,5.711v38.94a8.385,8.385,0,0,0,4.1,7.225l13.576,7.963a8.127,8.127,0,0,0,8.222,0L45.2,51.876a8.386,8.386,0,0,0,4.1-7.225V5.711Zm40.289,38.94c0,.014,0,.028,0,.042-.348.023-.7.038-1.044.038a15.659,15.659,0,0,1-12-5.6,15.61,15.61,0,0,1,2.662-6.157c.3.366.617.722.948,1.064a20.241,20.241,0,0,0,9.435,5.365Zm-37,.088c0-.029-.006-.058-.006-.088V39.332a18.717,18.717,0,0,0,10.172-6.473,15.615,15.615,0,0,1,2.748,6.274,15.678,15.678,0,0,1-12.015,5.6Zm-.006-8.753V26.63a15.646,15.646,0,0,1,7.967,3.8,15.493,15.493,0,0,1-7.967,5.557m12.049-5.953A18.886,18.886,0,0,0,22.677,16.15h8.762a3.623,3.623,0,0,1,3.619,3.619v.447l-3.861,0,.137,1.737a20.28,20.28,0,0,0,2.39,8.216,18.92,18.92,0,0,0-3.059,5.307,15.592,15.592,0,0,1-1.387-6.438H25.624a15.589,15.589,0,0,1-1.387,6.437,18.923,18.923,0,0,0-3.174-5.445m16.751.492a15.638,15.638,0,0,1,8.2-3.916v9.45a16.228,16.228,0,0,1-8.2-5.534M46.016,9v14.36a18.832,18.832,0,0,0-9.9,4.373,16.7,16.7,0,0,1-1.353-4.3l3.516,0V19.769a6.847,6.847,0,0,0-6.84-6.84H18.027l.914,2.223a15.485,15.485,0,0,1,1.165,5.922,15.571,15.571,0,0,1-1.442,6.555,18.83,18.83,0,0,0-9.651-4.25V9ZM11.5,49.038a4.922,4.922,0,0,1-1.286-1.093,18.819,18.819,0,0,0,11.947-4.493,15.69,15.69,0,0,1-4.178,9.393l-5.49-3.227ZM29.959,57a4.841,4.841,0,0,1-4.889,0l-3.839-2.254-.415-.243a18.908,18.908,0,0,0,4.629-12.384,19.019,19.019,0,0,0-.121-2.11,18.9,18.9,0,0,0,2.128-3.856,18.886,18.886,0,0,0,2.128,3.857,19,19,0,0,0-.121,2.109,18.74,18.74,0,0,0,4.668,12.434l-.251.147Zm13.576-7.964-1,.584-5.572,3.269A15.528,15.528,0,0,1,32.74,43.45a18.825,18.825,0,0,0,12.076,4.5,4.789,4.789,0,0,1-1.28,1.09" transform="translate(-2.421 -2.414)" fill="#fff"/>
  </g>
</svg>
